<?xml version="1.0" encoding="UTF-8" standalone="no"?><svg viewBox="0 0 312 312" version="1.1" id="cymosLogo" xmlns:xlink="http://www.w3.org/1999/xlink" xmlns="http://www.w3.org/2000/svg"><defs><linearGradient id="linearGradient26"><stop style="stop-color:#fff;stop-opacity:1" offset="0" id="stop23" /><stop style="stop-color:#000;stop-opacity:0.75;" offset="0.5" id="stop24" /><stop style="stop-color:#00ffff;stop-opacity:1" offset="1" id="stop26" /></linearGradient><linearGradient id="linearGradient9"><stop style="stop-color:#000000;stop-opacity:1;" offset="0" id="stop9" /><stop style="stop-color:#000000;stop-opacity:0.66;" offset="0.66" id="stop14" /><stop style="stop-color:#000000;stop-opacity:0.33;" offset="0.9" id="stop13" /><stop style="stop-color:#000000;stop-opacity:0;" offset="1" id="stop10" /></linearGradient><linearGradient id="linearGradient3"><stop style="stop-color:#0ac;stop-opacity:1;" offset="0" id="stop4" /><stop style="stop-color:#aef;stop-opacity:1;" offset="1" id="stop5" /></linearGradient><linearGradient id="linearGradient11"><stop style="stop-color:#fff;stop-opacity:1" offset="0" id="stop11" /><stop style="stop-color:#2af;stop-opacity:1;" offset="0.4625" id="stop1" /><stop style="stop-color:#0080ff;stop-opacity:1;" offset="0.5375" id="stop2" /><stop style="stop-color:#00a0ff;stop-opacity:1;" offset="0.725" id="stop3" /><stop style="stop-color:#00ffff;stop-opacity:1" offset="1" id="stop12" /></linearGradient><linearGradient xlink:href="#linearGradient11" id="linearGradient12" x1="74" y1="12" x2="182" y2="244" gradientUnits="userSpaceOnUse" /><linearGradient xlink:href="#linearGradient3" id="linearGradient5" x1="94" y1="72" x2="145" y2="190.5" gradientUnits="userSpaceOnUse" gradientTransform="translate(28.346457,28.346457)" /><filter style="color-interpolation-filters:sRGB" id="filter8" x="-0.1" y="-0.1" width="1.2" height="1.2"><feGaussianBlur stdDeviation="8" id="feGaussianBlur8" /></filter><radialGradient xlink:href="#linearGradient9" id="radialGradient14" gradientUnits="userSpaceOnUse" cx="156" cy="156" fx="156" fy="156" r="128" /><linearGradient xlink:href="#linearGradient26" id="linearGradient23" x1="81.5" y1="52" x2="197.5" y2="275" gradientUnits="userSpaceOnUse" /><filter style="color-interpolation-filters:sRGB" id="filter26" x="-0.125" y="-0.125" width="1.25" height="1.25"><feGaussianBlur stdDeviation="16" id="feGaussianBlur26" /></filter></defs><g id="backdrop"><path id="blackDrop" style="display:inline;fill:url(#radialGradient14)" d="M 284,156 A 128,128 0 0 1 156,284 128,128 0 0 1 28,156 128,128 0 0 1 156,28 128,128 0 0 1 284,156 Z" /><path id="coloredDrop" style="fill:url(#linearGradient23);filter:url(#filter26)" d="M 276,156 A 120,120 0 0 1 156,276 120,120 0 0 1 36,156 120,120 0 0 1 156,36 120,120 0 0 1 276,156 Z" /></g><g id="shadowbits" style="filter:url(#filter8)"><path id="shadowScrew" style="fill:#000000;fill-opacity:1" d="M 156.34647,89.680441 A 66.666664,66.666664 0 0 0 94.610129,131.72147 h 56.662121 c 13.29599,0 24,10.70401 24,24 0,13.29599 -10.70401,24 -24,24 H 94.092551 a 66.666664,66.666664 0 0 0 62.253919,43.29102 66.666664,66.666664 0 0 0 62.01953,-42.66602 h 40.98047 l 24,-24 -24,-24 H 218.52225 A 66.666664,66.666664 0 0 0 156.34647,89.680441 Z" /><path id="shadowCarrier" style="fill:#000000;fill-opacity:1" d="M 127.99925 -0.000753875 C 57.306869 -0.000753875 -0.000753875 57.306869 -0.000753875 127.99925 C -0.000753875 198.69163 57.306869 255.99925 127.99925 255.99925 C 184.65861 255.88281 233.80953 218.6507 250.07346 165.57151 L 156.86839 202.1262 A 80 80 0 0 1 53.18284 156.85862 A 80 80 0 0 1 98.450418 53.173074 L 191.26292 16.772684 C 171.98481 5.7944805 150.18502 0.012450964 127.99925 -0.000753875 z" transform="translate(28.346457,28.346457)" /></g><g id="actualLogo"><path id="actualScrew" style="opacity:1;fill:url(#linearGradient5);fill-opacity:1" d="M 156.34647,89.680441 A 66.666664,66.666664 0 0 0 94.610129,131.72147 h 56.662121 c 13.29599,0 24,10.70401 24,24 0,13.29599 -10.70401,24 -24,24 H 94.092551 a 66.666664,66.666664 0 0 0 62.253919,43.29102 66.666664,66.666664 0 0 0 62.01953,-42.66602 h 40.98047 l 24,-24 -24,-24 H 218.52225 A 66.666664,66.666664 0 0 0 156.34647,89.680441 Z" /><path id="actualCarrier" style="fill:url(#linearGradient12);fill-opacity:1" d="M 127.99925 -0.000753875 C 57.306869 -0.000753875 -0.000753875 57.306869 -0.000753875 127.99925 C -0.000753875 198.69163 57.306869 255.99925 127.99925 255.99925 C 184.65861 255.88281 233.80953 218.6507 250.07346 165.57151 L 156.86839 202.1262 A 80 80 0 0 1 53.18284 156.85862 A 80 80 0 0 1 98.450418 53.173074 L 191.26292 16.772684 C 171.98481 5.7944805 150.18502 0.012450964 127.99925 -0.000753875 z" transform="translate(28.346457,28.346457)" /></g></svg>